<svg width="137" height="61" fill="none" xmlns="http://www.w3.org/2000/svg"><path d="M60.73 21.309c3.38 2.8 4.22 9.12 10.86 9.12 5.39 0 5.22-7.7 8.46-10.31a3.77 3.77 0 0 1 2.5-.87 9.998 9.998 0 0 1 3 .53c2.71.83 5.26 2.16 7.67.36l-.77-.78-11.69-11.75c-3.58-3.8-6-5.36-9.39-5.58-3.14-.24-5.82 1.56-8.72 5.58l-11.47 14c4.98-2.37 7.67-1.89 9.55-.3zm-37.34 26.42c1.47-1.26 2.78-2.23 4.35-1.64.73.27 1.52.6 2.33.94 3.81 1.62 8.08 3.42 8.81-.6l-.29-.3-5.92-5.85c-3.14-3.58-7.38-4.48-10.74-.28l-8 8.7-1.34 1.45a5.75 5.75 0 0 0 3.56 1.26c3.22.04 5.35-2.06 7.24-3.68z" fill="#fff"/><path d="M94.69 18.75L80.76 4.7C74.5-2 67.12-1.11 62.41 4.7L34.32 39.23l-.08-.08c-4.7-4.69-8.94-5.36-13.43-.67L11.2 48.8 0 60.85h2.69l9.86-10.66 1.34-1.45 8-8.7c3.36-4.24 7.6-3.34 10.74.24l5.92 5.85.29.3 14.63 14.42h2.68L35.68 40.59 51 21.9l.23-.27 11.47-14c2.9-4 5.58-5.82 8.72-5.58 3.35.22 5.81 1.78 9.39 5.58l11.61 11.73.77.78 40.36 40.71h2.91l-41.77-42.1z" fill="#000"/><path d="M85.52 19.78a10.001 10.001 0 0 0-3-.53 3.77 3.77 0 0 0-2.5.87c-3.21 2.61-3.02 10.31-8.43 10.31-6.64 0-7.48-6.32-10.86-9.12-1.88-1.59-4.57-2.07-9.55.32l-.18.27-15.32 18.69 20.47 20.26h77.4L93.19 20.14c-2.41 1.8-4.96.47-7.67-.36zM30.071 47c-.81-.34-1.6-.67-2.33-.94-1.57-.59-2.88.38-4.35 1.64-1.89 1.62-4 3.72-7.28 3.72a5.75 5.75 0 0 1-3.56-1.26l-9.86 10.69h50.78l-14.59-14.42c-.73 4.02-5 2.22-8.81.57z" fill="#41C6F1"/><path d="M10.74 20.14h18.79c8.73 0 6.72-14.31-3.35-9.39 0-12.76-17.46-9.4-13.65.67-9.17-1.58-9.17 8.72-1.79 8.72z" fill="#fff"/></svg>