<svg fill="none" height="78" width="83" xmlns="http://www.w3.org/2000/svg"><path d="m75.408 26-16.56.66c-3.14.23-3.57-.89-5.37-4.91l-6.71-15.7c-.67-1.35-1.77-4.05-5.37-4.05s-4.69 2.7-5.4 4.05l-6.7 15.66c-1.8 4-2.25 5.14-5.38 4.91l-16.52-.62c-5.14-.27-7.4 7.12-2.46 10.25l14.54 9.61c2.91 2 1.56 4.48.89 6l-7.16 15.93c-2.23 4.92 2.24 9.61 6.71 6.93l17.46-11c2-1.11 2.91-1.35 4-1.35s2 .24 4 1.35l17.44 11c4.49 2.68 9-2 6.72-6.93l-7.11-15.88c-.67-1.57-2-4 .9-6l14.53-9.61c4.93-3.18 2.69-10.57-2.45-10.3zm-38.48 1.74a2.24 2.24 0 1 1 -2.24 2.26 2.11 2.11 0 0 1 2.24-2.26zm-1.79 10.07 2-.67c.67 4.47 5.59 5.37 9 2.69l1.11 1.78c-4.73 3.58-11.44 1.8-12.11-3.8zm12.3-5.6a2.24 2.24 0 1 1 2.24-2.21 2.098 2.098 0 0 1 -2.24 2.21z" fill="#f3e800"/><g fill="#000"><path d="m47.438 32.22a2.24 2.24 0 1 0 0-4.48 2.24 2.24 0 0 0 0 4.48zm-10.29 4.92-2 .67c.67 5.6 7.38 7.38 12.07 3.8l-1.12-1.78c-3.36 2.68-8.28 1.78-8.95-2.69zm-.221-4.93a2.24 2.24 0 1 0 -2.24-2.21 2.102 2.102 0 0 0 2.24 2.21z"/><path d="m74.058 23.94-15.21.68c-2 0-1.79 0-3.35-3.36l-6.94-15.88c-.68-1.38-2.01-5.38-7.16-5.38s-6.49 4-7.16 5.38l-6.93 15.88c-1.56 3.36-1.31 3.36-3.31 3.36l-15.26-.68c-3.12-.23-6 .68-7.83 4a7.23 7.23 0 0 0 2.46 9.63l14.55 9.83c1.78.91 1.34 2.25.44 4l-7.16 15.94c-2.91 6.48 3.58 13 9.63 9.17l17.66-11.19a5.69 5.69 0 0 1 2.91-.89 5.56 5.56 0 0 1 2.9.89l17.7 11.19c6 3.8 12.52-2.69 9.62-9.17l-7.18-15.88c-.89-1.79-1.33-3.13.45-4l14.54-9.83a7.21 7.21 0 0 0 2.46-9.63c-1.79-3.38-4.7-4.29-7.83-4.06zm3.8 12.31-14.53 9.61c-2.91 2-1.57 4.48-.9 6l7.16 15.88c2.24 4.92-2.23 9.61-6.72 6.93l-17.44-11c-2-1.11-2.91-1.35-4-1.35s-2 .24-4 1.35l-17.46 11c-4.47 2.68-8.94-2-6.71-6.93l7.16-15.88c.67-1.57 2-4-.89-6l-14.59-9.61c-4.94-3.13-2.68-10.52 2.46-10.25l16.6.62c3.13.23 3.58-.89 5.38-4.91l6.62-15.66c.68-1.35 1.79-4 5.37-4s4.7 2.68 5.37 4l6.71 15.66c1.8 4 2.23 5.14 5.37 4.91l16.59-.62c5.14-.27 7.38 7.12 2.45 10.25z"/></g></svg>