<svg id="Layer_1" xmlns="http://www.w3.org/2000/svg" viewBox="0 0 1414.5 240.3"><style>.st0,.st1{fill:none;stroke:#e6c620;stroke-width:2;stroke-linecap:round;stroke-linejoin:round}.st1{fill:#ffde02}.st2{fill:#e6c620}.st3,.st4,.st5{fill:none;stroke:#333;stroke-width:2;stroke-linecap:round;stroke-linejoin:round}.st4,.st5{fill:#333}.st5{fill:#727272}.st6{fill:#919191}.st6,.st7{stroke:#333;stroke-width:2;stroke-linecap:round;stroke-linejoin:round}.st7,.st8,.st9{fill:#ffde02}.st9{stroke:#333;stroke-width:3;stroke-linecap:round;stroke-linejoin:round}.st10{fill:#fff}.st11,.st12{fill:#fff;stroke:#333;stroke-width:2;stroke-linecap:round;stroke-linejoin:round}.st12{fill:none;stroke-width:3}.st13{fill:#333}.st14,.st15{fill:none;stroke:#727272;stroke-width:1.5;stroke-linecap:round;stroke-linejoin:round}.st15{fill:#fff;stroke:#cecccc;stroke-width:2}.st17{fill:#cecccc}.st18,.st19,.st21{fill:#727272;stroke:#333;stroke-width:3;stroke-linecap:round;stroke-linejoin:round}.st19,.st21{fill:#fff;stroke:#cecccc;stroke-width:2.5}.st21{fill:none;stroke-width:2}</style><g id="Layer_4"><path class="st0" d="M1259.9 239.3l4.3-13.7c.1-.4.6-.7 1-.5.3.1.4.3.5.5l4.6 13.7h-10.4z"/><path class="st1" d="M1258 235.3h14v4h-14z"/><path class="st0" d="M1263 230.3h4M1283.9 239.3l4.3-13.7c.1-.4.6-.7 1-.5.3.1.4.3.5.5l4.6 13.7h-10.4z"/><path class="st1" d="M1282 235.3h14v4h-14z"/><path class="st0" d="M1287 230.3h4M1325.3 226c-3.8-.3-7.7-1.9-9.9-5.1-2.6-3.7-2.5-9-5.4-12.5-4.1-5-13.5-5.4-14.6-11.8-.6-3.3 1.7-6.5 4.4-8.6s5.9-3.4 8.4-5.6c4.8-4.3 6.6-11.4 11.7-15.3 7.1-5.4 17.3-2.6 25.7.4 5.4 2 11 4 15.3 7.8s7.1 9.9 5.4 15.5c-.8 2.6-2.5 5-2.2 7.6.2 2.3 2 4.2 2.9 6.4 2.9 6.5-2.1 14.4-8.7 17.2-6.1 2.6-11.6 1-17.8 1.5-5.2.4-9.7 3-15.2 2.5z"/><path class="st2" d="M1345.6 204.1c-.4-.3-.9-.3-1.2.1l-8 9.4v-37c0-.5-.4-.8-.8-.8-.5 0-.8.4-.8.8v22.1l-7.1-9.8c-.3-.4-.8-.5-1.2-.2-.4.3-.5.8-.2 1.2l8.5 11.7v37h1.7v-22.3l9.2-10.9c.3-.4.2-1-.1-1.3z"/><path class="st0" d="M1229 112.3h21v48h-21z"/><circle class="st0" cx="1239.5" cy="122.1" r="5.2"/><circle class="st0" cx="1239.5" cy="136.1" r="5.2"/><circle class="st0" cx="1239.5" cy="150" r="5.2"/><path class="st0" d="M1236 160.3h7v46h-7zM1234 206.3h11v33h-11zM1193.6 32.7c0-8.9-7.2-16-16-16-7.6 0-14.2 5.3-15.7 12.8-5.8-1.3-11.6 2.4-13 8.2-.1.5-.2 1.1-.2 1.7H1135M1127 39.3h-7M1181 40.3h34M638.2 18.8v.5H621"/><path class="st0" d="M689 19.6c-.7-5.7-5.9-9.8-11.6-9.1-.8.1-1.6.3-2.4.6-2.7-7.9-11.3-12-19.2-9.3-4 1.4-7.2 4.4-8.9 8.2-4.9.1-8.7 4.1-8.7 9M689 19.3h10M704 19.3h3M659 25.3h-24M152 16.5h-15c0-4.3-3.5-7.8-7.8-7.8-1.4 0-2.8.4-4.1 1.1-2.9-6.7-10.7-9.9-17.4-7-4 1.7-6.9 5.3-7.8 9.5-4.8-1.1-9.6 2-10.7 6.8v.1H75M116.9 24.3h29.7M224 93.3h185.6c15.7 0 31.1 4.7 44.1 13.5s28.4 13.5 44.1 13.5h142c17.2 0 34 4.6 48.8 13.2M103 222.5c-3.7-1.2-7.1-4-7.7-7.9-.5-2.8.5-5.9-.6-8.5-1-2.4-3.4-3.9-5.1-5.8-4.7-5.3-3.3-14.7 2.7-18.3 3.2-2 7.4-2.5 10.1-5.2 2.4-2.5 2.9-6.3 4.3-9.5 1.9-4.2 6-7.6 10.6-7.9s9.4 3 10.2 7.5c.4 2.3-.2 4.7.1 7 .6 4.3 4.2 7.4 7.2 10.4s5.9 7.2 4.7 11.4c-.8 2.9-3.6 5.2-3.8 8.2-.1 2.5 1.5 4.8 2.1 7.2 1.2 5.2-3.1 10.4-8.1 12.1-4.7 1.7-9.6 1-14.4.4-4.1-.4-8.4.1-12.3-1.1z"/><path class="st2" d="M123 191.5c-.3-.3-.8-.3-1.2 0l-6.7 6.5v-14.1c0-.5-.4-.8-.8-.8-.5 0-.8.4-.8.8V214l-8.4-11.8c-.3-.4-.8-.5-1.2-.2-.4.3-.5.8-.2 1.2l9.7 13.8v22h1.7v-38.7l7.8-7.6c.4-.4.4-.9.1-1.2z"/><path class="st0" d="M46.2 217.3c-3.8-.5-7.5-2.4-9.2-5.8-2.9-5.6.9-12.6-.7-18.7-1-4-4.4-8-2.8-11.8 1.4-3.3 5.8-4.6 6.9-8 1.1-3.5-2-6.8-3.5-10.1-2.4-5.2-1.1-11.3.3-16.9 1.4-5.4 2.8-10.9 5.9-15.4 2.7-3.8 6.5-6.8 9.3-10.5 1.6-2.1 2.8-4.5 4.5-6.4s4.3-3.5 6.9-3.1c3.4.4 5.7 3.8 6.6 7.1s.6 6.8 1.3 10.2c2 9.5 11.3 16.9 11.2 26.6 0 5.2-2.8 10.1-2.7 15.3 0 4 1.7 7.7 2.8 11.5s1.5 8.2-.6 11.5c-2.4 3.6-7.6 5.6-7.8 10-.1 2.8 2.1 5.2 2.4 8 .4 3.9-3.5 7.2-7.5 7.7-4.3.5-7.7-2-11.7-2.2-4-.2-7.6 1.6-11.6 1z"/><path class="st2" d="M68.8 163.6c-.5-.3-1.1-.2-1.4.3l-8.2 12.5v-34.2c0-.6-.4-1-1-1s-1 .4-1 1v60.5l-10.6-10.9c-.4-.4-1-.4-1.4 0-.4.4-.4 1 0 1.4l12 12.3V239h2v-59l9.9-15c.3-.5.2-1.1-.3-1.4z"/><path class="st0" d="M1010.8 167.6l.5-.5c2.4-2.5 3.8-5.9 3.8-9.5v-9.1c0-4.6 1-9.2 2.9-13.4l2.3-5c1.9-4.2 2.9-8.7 2.9-13.4v.2c0-6.7 5.3-12.2 11.9-12.4h.6c6.7.3 11.9 5.8 11.9 12.4v-.2c0 4.6 1 9.2 2.9 13.4l2.3 5c1.9 4.2 2.9 8.7 2.9 13.4v9.1c0 3.5 1.4 6.9 3.8 9.5l.5.5c2.4 2.5 3.8 5.9 3.8 9.5v1.9c0 14.3-11.6 25.8-25.8 25.8h-5.2c-14.3 0-25.8-11.6-25.8-25.8v-1.9c0-3.6 1.3-7 3.8-9.5zM1035.4 136.7v102.6M1050.3 169.9l-14.4 15.8M1024.1 142.9l10.6 12.4M195 93.3h17"/><path class="st3" d="M32 239.3h1355M25 239.3H12M6 239.3H1"/><path class="st4" d="M808.9 203.4c8 .2 14.3 8.3 14.1 18-.2 9.7-6.8 17.4-14.8 17.1h-7.1l.7-35.1h7.1z"/><path class="st5" d="M787.3 220.5c.2-9.7 6.8-17.4 14.8-17.1s14.3 8.3 14.1 18c-.2 9.7-6.8 17.4-14.8 17.1s-14.3-8.3-14.1-18z"/><path class="st5" d="M793.4 220.7c-.1 5.4 3.4 9.8 7.8 10s8.1-4.1 8.2-9.5-3.4-9.8-7.8-10-8.1 4.1-8.2 9.5z"/><path class="st4" d="M837.6 203.4c8 .2 14.3 8.3 14.1 18-.2 9.7-6.8 17.4-14.8 17.1h-7.1l.7-35.1h7.1z"/><path class="st5" d="M816.3 220.5c.2-9.7 6.8-17.4 14.8-17.1s14.3 8.3 14.1 18c-.2 9.7-6.8 17.4-14.8 17.1s-14.3-8.3-14.1-18z"/><path class="st5" d="M822.3 220.7c-.1 5.4 3.4 9.8 7.8 10s8.1-4.1 8.2-9.5-3.4-9.8-7.8-10-8.1 4.1-8.2 9.5z"/><path class="st4" d="M737.6 202.4c8 .2 14.3 8.3 14.1 18-.2 9.7-6.8 17.4-14.8 17.1h-7.1l.7-35.1h7.1z"/><path class="st5" d="M716.3 219.5c.2-9.7 6.8-17.4 14.8-17.1s14.3 8.3 14.1 18c-.2 9.7-6.8 17.4-14.8 17.1s-14.3-8.3-14.1-18z"/><path class="st6" d="M722.8 219.7c-.1 5.4 3.4 9.8 7.8 10s8.1-4.1 8.2-9.5-3.4-9.8-7.8-10-8.1 4.2-8.2 9.5z"/><path class="st5" d="M727.1 219.9c0 2.5 1.6 4.5 3.6 4.6s3.7-1.9 3.8-4.4-1.6-4.5-3.6-4.6-3.8 1.9-3.8 4.4z"/><path class="st4" d="M769.5 202.4c8 .2 14.3 8.3 14.1 18-.2 9.7-6.8 17.4-14.8 17.1h-7.1l.7-35.1h7.1z"/><path class="st5" d="M748.2 219.5c.2-9.7 6.8-17.4 14.8-17.1s14.3 8.3 14.1 18c-.2 9.7-6.8 17.4-14.8 17.1s-14.3-8.3-14.1-18z"/><path class="st6" d="M754.6 219.7c-.1 5.4 3.4 9.8 7.8 10s8.1-4.1 8.2-9.5-3.4-9.8-7.8-10-8.1 4.2-8.2 9.5z"/><path class="st5" d="M758.9 219.9c0 2.5 1.6 4.5 3.6 4.6s3.7-1.9 3.8-4.4-1.6-4.5-3.6-4.6-3.7 1.9-3.8 4.4z"/><path class="st4" d="M990.9 203c8 .2 14.3 8.3 14.1 18-.2 9.7-6.8 17.4-14.8 17.1h-7.1l.7-35.1h7.1z"/><path class="st5" d="M969.6 220.2c.2-9.7 6.8-17.4 14.8-17.1s14.3 8.3 14.1 18c-.2 9.7-6.8 17.4-14.8 17.1s-14.3-8.3-14.1-18z"/><path class="st5" d="M975.6 220.4c-.1 5.4 3.4 9.8 7.8 10s8.1-4.1 8.2-9.5-3.4-9.8-7.8-10-8 4.1-8.2 9.5z"/><path class="st7" d="M891 102.3h68v102h-68zM991.4 178.3c-7.7 3.6-15.8 6.4-22.6 11.5 5.2-1.8 10.6-2.5 16-2.1 1.6-3.6 3.8-6.7 6.6-9.4zM986 189.4c-.5 1.7-.8 3.4-.7 5.2 3-.9 6-2 8.9-3.2-2.6-1-5.4-1.7-8.2-2z"/><path class="st7" d="M912 141.5l-4-27.5h55.1s45.2 1.3 45.2 18.6c0 10.4-17.2 12.4-17.2 12.4l-79.1-3.5z"/><path class="st7" d="M959 133.6l-2.8 70.7 65.7.3v-9.8c0-4.9-.3-9.7-.9-14.6 0-.4-.1-.8-.1-1.2l-4.1-26.8-.6-3.7c-1.3-8.2-6.2-13-10.2-13.6-11.5-1.6-8.1-1.3-47-1.3z"/><path class="st8" d="M938.3 204.3h82.5c1.8 0 3.3 1.5 3.3 3.3V221c0 1.8-1.5 3.3-3.3 3.3h-82.5c-1.8 0-3.3-1.5-3.3-3.3v-13.5c0-1.7 1.5-3.2 3.3-3.2z"/><path class="st3" d="M938.3 204.3h82.5c1.8 0 3.3 1.5 3.3 3.3V221c0 1.8-1.5 3.3-3.3 3.3h-82.5c-1.8 0-3.3-1.5-3.3-3.3v-13.5c0-1.7 1.5-3.2 3.3-3.2z"/><path class="st9" d="M912 132.3v14.8h107.8c-1.6-9.8-1.3-14.8-8.3-14.8H912z"/><path class="st8" d="M983 210.1h30v6h-30z"/><path class="st3" d="M983 210.1h30v6h-30z"/><path class="st4" d="M944.6 202.4c8 .2 14.3 8.3 14.1 18-.2 9.7-6.8 17.4-14.8 17.1h-7.1l.7-35.1h7.1z"/><path class="st7" d="M689 102.3h202v98H689z"/><path class="st10" d="M693.5 106.8h196v93h-196z"/><path class="st4" d="M964 224.1h-46l-4-43h46z"/><path class="st11" d="M969.1 180.6c0-.4-.1-.8-.1-1.2l-4.1-26.9s-2.3-16.1-8-22.9c-11.2-13.3-46.2-14.5-46.2-14.5H908v109h12.6c-.2-1.3-.3-2.6-.3-3.9.2-11.9 8.4-21.3 18.1-21s17.5 10.1 17.3 22c0 1-.2 1.9-.3 2.9H970v-8.6c0-4.3-.3-29.6-.9-34.9z"/><path class="st8" d="M912 120.1h1.8c.3 0 32.4 1.2 44.3 12.9-.5-1-1.2-1.9-1.9-2.8-10.8-12.8-45.1-14.2-45.4-14.2H909v107h3V120.1z"/><path class="st12" d="M970 223.1v-7.6c0-4.3-.3-29.6-.9-34.9 0-.4-.1-.8-.1-1.2l-4.1-26.9s-2.3-16.1-8-22.9c-11.2-13.3-46.2-14.5-46.2-14.5H909"/><path class="st8" d="M971 205.3h2v18h-2z"/><path class="st12" d="M1021.5 203.8h-75"/><path class="st13" d="M936 224.3h-28v-26h30z"/><path class="st13" d="M717.3 212.2c2.9-6.2 8.4-10.4 14.7-10.2 6 .2 11.2 4.3 13.9 10.2h4.5c2.9-6.2 8.4-10.4 14.7-10.2 6 .2 11.2 4.3 13.9 10.2h131v-11.4H710l-4.2 10c-.2.5 0 1.1.5 1.3.1.1.3.1.4.1h10.6z"/><path class="st3" d="M964 147.1h-55"/><path class="st4" d="M965 147.3l4.8 31h50.7L1015 148z"/><path class="st5" d="M923.2 219.5c.2-9.7 6.8-17.4 14.8-17.1s14.3 8.3 14.1 18c-.2 9.7-6.8 17.4-14.8 17.1s-14.2-8.3-14.1-18z"/><path class="st6" d="M929.7 219.7c-.1 5.4 3.4 9.8 7.8 10s8.1-4.1 8.2-9.5-3.4-9.8-7.8-10-8.1 4.2-8.2 9.5z"/><path class="st5" d="M934 219.9c0 2.5 1.6 4.5 3.6 4.6s3.7-1.9 3.8-4.4-1.6-4.5-3.6-4.6-3.7 1.9-3.8 4.4z"/><path class="st4" d="M713 211.3h3v7h-3z"/><path class="st13" d="M921 221.1h2c.6 0 1 .4 1 1v5c0 .6-.4 1-1 1h-2c-.6 0-1-.4-1-1v-5c0-.6.4-1 1-1z"/><path class="st12" d="M956.4 224.1h67.6v-17.9c0-1.1-.9-2.1-2.1-2.1v-9.5c0-4.9-.3-9.7-.9-14.6 0-.4-.1-.8-.1-1.2l-4.6-29.4c-.1-.4-.2-.9-.2-1.3h4.7c-1.6-9.8-2.3-16.8-9.3-16.8h-3.2c-.7-16.9-45.2-18.2-45.2-18.2H959v-11H688v97.6l19 .2M890.5 103.8v96"/><path class="st12" d="M908.5 223.6v-110h51"/><path class="st8" d="M1023 208.9h.2c1.8 0 3.3 1.5 3.3 3.3v2.3c0 1.8-1.5 3.3-3.3 3.3h-.2c-1.8 0-3.3-1.5-3.3-3.3v-2.3c0-1.9 1.5-3.3 3.3-3.3z"/><path class="st3" d="M1023 208.9h.2c1.8 0 3.3 1.5 3.3 3.3v2.3c0 1.8-1.5 3.3-3.3 3.3h-.2c-1.8 0-3.3-1.5-3.3-3.3v-2.3c0-1.9 1.5-3.3 3.3-3.3z"/><path class="st12" d="M909.5 147.6h107M778.5 211.8h142M1023.5 223.8h-67"/><path class="st9" d="M900.4 91.3v53.4c0 4.1 1.9 7.9 5.2 10.4l2.2 1.7V91.3h-7.4zM944.6 91.3h6.3V113h-6.3z"/><path class="st8" d="M971.5 208.9h.2c1.8 0 3.3 1.5 3.3 3.3v2.3c0 1.8-1.5 3.3-3.3 3.3h-.2c-1.8 0-3.3-1.5-3.3-3.3v-2.3c0-1.9 1.5-3.3 3.3-3.3z"/><path class="st3" d="M971.5 208.9h.2c1.8 0 3.3 1.5 3.3 3.3v2.3c0 1.8-1.5 3.3-3.3 3.3h-.2c-1.8 0-3.3-1.5-3.3-3.3v-2.3c0-1.9 1.5-3.3 3.3-3.3zM964 202.2v-17.5c0-3.5-.3-6.9-.8-10.4l-2.5-17.1c-.5-2.9-3-5.1-6-5.2h-22.6c-2.9 0-5.2 2.3-5.2 5.2v40.6"/><path class="st14" d="M920 217.6c.2-7.5 3.9-13.9 9.2-16.8M920.2 221.1c-.2-1.1-.3-2.3-.2-3.5"/><path class="st13" d="M932.3 175.8h26.3c.5 0 .9-.4.9-.9v-.1l-2.7-17.8c-.1-.4-.4-.8-.9-.8h-23.6c-.5 0-.9.4-.9.9v17.8c0 .5.4.9.9.9z"/><path class="st5" d="M848.7 202.3h35.4c4.4 0 7.9 3.5 7.9 7.9v2.1c0 4.4-3.5 7.9-7.9 7.9h-35.4c-4.4 0-7.9-3.5-7.9-7.9v-2.1c0-4.3 3.5-7.9 7.9-7.9z"/><path class="st5" d="M885 202.3c3.6 0 6.6 2.9 6.6 6.6v4.8c0 3.6-2.9 6.6-6.6 6.6-3.6 0-6.6-2.9-6.6-6.6v-4.8c0-3.7 3-6.6 6.6-6.6z"/><path class="st12" d="M688.5 199.8h219"/><path class="st14" d="M785.9 209.7l-5-9"/><path class="st13" d="M1058.8 218.8h8.1c.5 0 1 .4 1 1v5c0 .5-.4 1-1 1h-8.1c-.5 0-1-.4-1-1v-5c0-.6.5-1 1-1z"/><path class="st4" d="M1202.9 221.7h-150.7l5.5-33.5h145.2z"/><path class="st4" d="M1197.7 204.7c7.5.2 13.5 7.8 13.3 16.9-.2 9.1-6.4 16.4-14 16.1h-6.7l.7-33.1h6.7z"/><path class="st5" d="M1177.6 220.8c.2-9.1 6.4-16.4 14-16.1s13.5 7.8 13.3 16.9c-.2 9.1-6.4 16.4-14 16.1s-13.4-7.8-13.3-16.9z"/><path class="st5" d="M1183.4 221c-.1 5 3.2 9.3 7.4 9.4s7.6-3.9 7.7-8.9-3.2-9.2-7.4-9.4-7.6 3.8-7.7 8.9z"/><path class="st4" d="M1090.8 221.6h100.4c1.1 0 1.9.9 1.9 1.9 0 1.1-.9 1.9-1.9 1.9h-100.4v-3.8z"/><path class="st4" d="M1082.5 204.7c7.5.2 13.5 7.8 13.3 16.9-.2 9.1-6.4 16.4-14 16.1h-6.7l.7-33.1h6.7z"/><path class="st5" d="M1062.4 220.8c.2-9.1 6.4-16.4 14-16.1s13.5 7.8 13.3 16.9c-.2 9.1-6.4 16.4-14 16.1s-13.5-7.8-13.3-16.9z"/><path class="st6" d="M1068.5 221c-.1 5 3.2 9.3 7.4 9.4s7.6-3.9 7.7-8.9-3.2-9.2-7.4-9.4-7.6 3.8-7.7 8.9z"/><path class="st5" d="M1072.6 221.1c0 2.3 1.5 4.3 3.4 4.3s3.5-1.8 3.6-4.1-1.5-4.3-3.4-4.3-3.6 1.8-3.6 4.1z"/><path class="st4" d="M1134.4 204.7c7.5.2 13.5 7.8 13.3 16.9-.2 9.1-6.4 16.4-14 16.1h-6.7l.7-33.1h6.7z"/><path class="st13" d="M1110.7 218.8h10.1v6.9h-10.1z"/><path class="st5" d="M1114.3 220.8c.2-9.1 6.4-16.4 14-16.1s13.5 7.8 13.3 16.9c-.2 9.1-6.4 16.4-14 16.1s-13.5-7.8-13.3-16.9z"/><path class="st6" d="M1120.4 221c-.1 5 3.2 9.3 7.4 9.4s7.6-3.9 7.7-8.9-3.2-9.2-7.4-9.4-7.6 3.8-7.7 8.9z"/><path class="st5" d="M1124.5 221.1c0 2.3 1.5 4.3 3.4 4.3s3.5-1.8 3.6-4.1-1.5-4.3-3.4-4.3-3.6 1.8-3.6 4.1z"/><path class="st7" d="M1199 181l-11.6-35.9c-.6-1.7-2.1-2.8-3.9-2.8h-124.2c-2.3 0-4.1 1.8-4.1 4.1l-10.4 75.9h13.5s-.1-.7-.1-1.1c.2-11 7.8-19.8 16.9-19.5s16.3 9.4 16.1 20.5v.1h19.6v-1.1c.2-11 7.8-19.8 16.9-19.5s16.3 9.4 16.1 20.5v.1h74.2v-32.6l-19-8.7z"/><path class="st10" d="M1063.7 205.6l.3-.3c3-3 7.1-4.6 11.3-4.5 9.4.3 16.9 9.4 17 20.6h17.6v-.1c0-5.7 2.2-11.2 6.1-15.4l.3-.3.3-.3c3-3 7.1-4.6 11.3-4.5 9.4.3 16.9 9.4 17 20.6h7.2c.2-9.4 2.8-20.5-.2-29.4-1.2-3.7-5.8-3-9.1-4.6-3.7-1.8-7.6-4.2-9.4-8.1-3-6.7-4.9-14.4-6.9-21.5-.8-2.9-2.3-6.8-2.8-10.4h-60.1c-1.7 0-3.1 1.4-3.1 3.1v.1l-9.7 70.7h6.8v-.1c0-5.7 2.2-11.2 6.1-15.4"/><path class="st12" d="M1122.1 143.6l10.4 38 19.5 8.6v31.1"/><path class="st13" d="M1170 150.3h-40.9l2.8 11h38.1z"/><path class="st3" d="M1170 150.3h-40.9l2.8 11h38.1z"/><path class="st13" d="M1183.7 150.3H1170v11h4c2.2 0 4 1.8 4 4v13h15l-9.3-28z"/><path class="st3" d="M1183.7 150.3H1170v11h4c2.2 0 4 1.8 4 4v13h15l-9.3-28z"/><path class="st4" d="M1174 161.3h-42.1l4.4 17h41.7v-13c0-2.2-1.8-4-4-4z"/><path class="st12" d="M1152.5 190.3h64.9"/><path class="st8" d="M1122.2 161.3h-13.3c1.5.6 2.1 3.3 2.1 3.3v28.7h12c1.7 0 3 1.3 3 3v1.2c.7-.1 1.4-.1 2.1-.1.3 0 .6 0 .9.1l-1-16.4-5.8-19.8z"/><path class="st8" d="M1122.2 161.3h-13.3c1.5.6 2.1 3.3 2.1 3.3v28.7h12c1.7 0 3 1.3 3 3v1.2c.7-.1 1.4-.1 2.1-.1.3 0 .6 0 .9.1l-1-16.4-5.8-19.8z"/><path class="st3" d="M1122.2 161.3h-13.3c1.5.6 2.1 3.3 2.1 3.3v28.7h12c1.7 0 3 1.3 3 3v1.2c.7-.1 1.4-.1 2.1-.1.3 0 .6 0 .9.1l-1-16.4-5.8-19.8z"/><path class="st8" d="M1123 193.3h-8v-28.7c0-1.7-1.3-3-3-3s-3 1.3-3 3v37.7h5.5c3.2-2.8 7.3-4.5 11.5-4.8v-1.2c0-1.7-1.3-3-3-3z"/><path class="st8" d="M1123 193.3h-8v-28.7c0-1.7-1.3-3-3-3s-3 1.3-3 3v37.7h5.5c3.2-2.8 7.3-4.5 11.5-4.8v-1.2c0-1.7-1.3-3-3-3z"/><path class="st3" d="M1123 193.3h-8v-28.7c0-1.7-1.3-3-3-3s-3 1.3-3 3v37.7h5.5c3.2-2.8 7.3-4.5 11.5-4.8v-1.2c0-1.7-1.3-3-3-3zM1134 161.3h40c2.2 0 4 1.8 4 4v13M1170 150.3v11"/><path class="st13" d="M1108 164.6c-.1-1.8 1.3-3.3 3.1-3.4h.2c.2 0 .4 0 .6.1h10.3l-3.2-11h-14.8c-2.9 0-5.2 2.3-5.2 5.2v46.8h9v-37.7z"/><path class="st3" d="M1108 164.6c-.1-1.8 1.3-3.3 3.1-3.4h.2c.2 0 .4 0 .6.1h10.3l-3.2-11h-14.8c-2.9 0-5.2 2.3-5.2 5.2v46.8h9v-37.7z"/><path class="st8" d="M1099 202.3v2.8c0 2.9 2.3 5.2 5.2 5.2h5.1c.9-3.1 2.7-5.9 5.2-8H1099z"/><path class="st8" d="M1099 202.3v2.8c0 2.9 2.3 5.2 5.2 5.2h5.1c.9-3.1 2.7-5.9 5.2-8H1099z"/><path class="st3" d="M1099 202.3v2.8c0 2.9 2.3 5.2 5.2 5.2h5.1c.9-3.1 2.7-5.9 5.2-8H1099zM1173 198.3h27v8h-27z"/><path class="st8" d="M1163.3 197.9c1.8 0 3.2 1.5 3.1 3.3v1.8c.1 1.7-1.3 3.2-3 3.3-1.7.1-3.2-1.3-3.3-3v-2c0-1.9 1.4-3.4 3.2-3.4z"/><path class="st3" d="M1163.3 197.9c1.8 0 3.2 1.5 3.1 3.3v1.8c.1 1.7-1.3 3.2-3 3.3-1.7.1-3.2-1.3-3.3-3v-2c0-1.9 1.4-3.4 3.2-3.4z"/><path class="st8" d="M1209.3 197.9c1.8 0 3.2 1.5 3.1 3.3v1.8c.1 1.7-1.3 3.2-3 3.3-1.7.1-3.2-1.3-3.3-3v-2c0-1.9 1.4-3.4 3.2-3.4z"/><path class="st3" d="M1209.3 197.9c1.8 0 3.2 1.5 3.1 3.3v1.8c.1 1.7-1.3 3.2-3 3.3-1.7.1-3.2-1.3-3.3-3v-2c0-1.9 1.4-3.4 3.2-3.4z"/><path class="st12" d="M1058.5 222.8h-13l10.4-75.9c0-2.3 1.8-4.1 4.1-4.1h123.2c1.8 0 3.3 1.1 3.9 2.8l11.6 35.9 19 8.6v32.6h-9.2"/><path class="st9" d="M1220.7 222.8h-68.2v-8h68.2c.5 0 .8.4.8.8v6.3c0 .5-.4.9-.8.9z"/><path class="st7" d="M1042.8 216.3h4.2v7h-4.2c-.5 0-.8-.4-.8-.8v-5.3c0-.5.4-.9.8-.9z"/><path class="st15" d="M1087.2 188.3h-21.4c-.4 0-.8-.3-.8-.8V172c0-.4.3-.8.8-.8h21.4c.4 0 .8.3.8.8v15.5c0 .5-.3.8-.8.8z"/><path class="st15" d="M1065.3 187l9.9-7.1c.5-.4 1.3-.5 1.9 0l9.8 7"/><path class="st15" d="M1065.8 172.2l9.7 7.6c.5.4 1.1.4 1.5 0l10-7.6"/><path class="st9" d="M203.4 190.5l-14.5 18.1h13.5l15.9-18.1z"/><path class="st13" d="M229 195.3h162v23H229z"/><path class="st13" d="M390 196.3v21H230v-21h160m2-2H228v25h164v-25z"/><path class="st7" d="M330 126.3h55.3v69.1H330z"/><path class="st11" d="M200.1 194.9l18.2-67.5h-26.5l-16.5 10-17.8 17.8v50.2l30.7 2.9z"/><path class="st11" d="M189.5 130.8h20.9l-15.9 63.9-7.7 9.2h-27.4v-47.4c3-3.5 11.4-13.1 14.1-16.1.4-.4 6.8-5 6.8-5l9.2-4.6m-1.3-5.6s-14.8 8.4-18.2 12.1-15.3 17.4-15.3 17.4v53.4l24.2.6h8.9l10.7-12 17.6-71.6-27.9.1z"/><path d="M188.5 126.2c-1.9 1.1-14.7 8.4-17.7 11.8-3.1 3.4-13.3 15.2-15.1 17.1v52.1l3.5.3v-2.7c-.5 0-.9-.5-.9-1v-47.4c0-.2.1-.5.2-.7 3.1-3.5 11.5-13.1 14.2-16.1.4-.4 4.6-3.4 7-5.2l.1-.1 9.1-4.6c.2-.1.3-.1.5-.1h20.9c.3 0 .6.1.8.4h.6c.7 0 1.4.1 2.2.2l1-4.1-26.4.1z" fill="#fedc32"/><path class="st7" d="M330 189.9v-66.2h-4.6l.1 2.3H293v-2.3h-5.2l.1 2.3h-31.5l.1-2.3h-5.3l-.1 2.3h-29.3l.6-2.3h-5.6L199.2 195l130.8.5v-5.1z"/><path class="st10" d="M216.3 129.9l-16.1 64.7h4.7l124.1-.1v-64.6z"/><path class="st3" d="M159.3 203.9l51-73.1M180.3 136.4l6.4 67"/><path class="st17" d="M231.5 164c0 .6.1 1.1.3 1.6.2.4.5.8.9 1.1.4.3.8.5 1.3.6.5.1 1.1.2 1.6.2s1.1-.1 1.6-.2c.4-.1.8-.3 1.1-.6.3-.2.5-.5.6-.8.1-.3.2-.6.2-.9 0-.5-.1-1-.4-1.4-.3-.3-.6-.5-.9-.6-.7-.2-1.3-.4-2-.6-.8-.2-1.7-.4-2.9-.7-.6-.1-1.2-.4-1.8-.7-.4-.3-.8-.6-1.1-1-.3-.4-.5-.7-.6-1.2-.1-.4-.2-.8-.2-1.3 0-.7.2-1.5.5-2.1.3-.6.8-1.1 1.4-1.5.6-.4 1.2-.7 1.9-.9.7-.2 1.4-.3 2.2-.3.8 0 1.6.1 2.4.3.7.2 1.4.5 2 1 1.2.9 1.9 2.4 1.9 3.9h-2.9c0-.9-.4-1.7-1.1-2.2-.7-.5-1.6-.7-2.5-.7-.3 0-.7 0-1 .1-.3.1-.7.2-1 .3-.3.2-.5.4-.7.7-.5.8-.4 1.7.3 2.4.4.4.9.6 1.4.7.1 0 .3.1.7.2s.9.2 1.4.4 1 .3 1.5.4.9.2 1.1.3c.5.2 1 .4 1.4.7.4.3.7.6 1 1 .3.4.5.8.6 1.2.1.4.2.9.2 1.3 0 .8-.2 1.6-.6 2.4-.4.6-.9 1.2-1.5 1.6-.6.4-1.3.7-2.1.9-.8.2-1.6.3-2.4.3-.9 0-1.8-.1-2.6-.3-.8-.2-1.5-.6-2.2-1.1-.6-.5-1.1-1.1-1.5-1.8-.4-.8-.6-1.7-.6-2.6l3.1-.1zM251.3 153.1h7.2c1 0 1.9.1 2.9.5.7.3 1.2.7 1.7 1.3.4.5.7 1.1.8 1.7.1.5.2 1.1.2 1.7 0 .6-.1 1.1-.2 1.6-.2.6-.4 1.2-.8 1.6-.5.5-1 1-1.7 1.3-.9.4-1.9.5-2.9.5h-4.4v6.3h-2.9l.1-16.5zm2.9 7.8h4.2c.3 0 .7 0 1-.1.3-.1.7-.2.9-.4.3-.2.5-.5.7-.8.2-.4.3-.9.3-1.3 0-.5-.1-.9-.2-1.3-.1-.3-.3-.6-.6-.8-.3-.2-.6-.4-.9-.4-.4-.1-.7-.1-1.1-.1h-4.3v5.2zM275.1 153.1h3.1l6.3 16.4h-3.1l-1.5-4.3h-6.6l-1.5 4.3h-3l6.3-16.4zM274 163h5l-2.5-7.1h-.1L274 163zM292.7 153.1h4l4.5 12.9 4.4-12.9h4v16.4H307v-12.7l-4.6 12.7H300l-4.6-12.7v12.7h-2.7v-16.4z"/><path class="st4" d="M371.2 202.6c8 .2 14.3 8.3 14.1 18-.2 9.7-6.8 17.4-14.8 17.1h-7.1l.7-35.1h7.1z"/><path class="st18" d="M349.8 219.7c.2-9.7 6.8-17.4 14.8-17.1s14.3 8.3 14.1 18c-.2 9.7-6.8 17.4-14.8 17.1s-14.3-8.3-14.1-18z"/><path class="st6" d="M356.3 219.9c-.1 5.4 3.4 9.8 7.8 10s8.1-4.1 8.2-9.5-3.4-9.8-7.8-10-8.1 4.2-8.2 9.5z"/><path class="st5" d="M360.6 220.1c0 2.5 1.6 4.5 3.6 4.6s3.7-1.9 3.8-4.4-1.6-4.5-3.6-4.6-3.7 1.9-3.8 4.4z"/><path class="st4" d="M255.2 202.6c8 .2 14.3 8.3 14.1 18-.2 9.7-6.8 17.4-14.8 17.1h-7.1l.7-35.1h7.1z"/><path class="st18" d="M233.8 219.7c.2-9.7 6.8-17.4 14.8-17.1 8 .2 14.3 8.3 14.1 18-.2 9.7-6.8 17.4-14.8 17.1s-14.3-8.3-14.1-18z"/><path class="st6" d="M240.3 219.9c-.1 5.4 3.4 9.8 7.8 10s8.1-4.1 8.2-9.5-3.4-9.8-7.8-10-8.1 4.2-8.2 9.5z"/><path class="st5" d="M244.6 220.1c-.1 2.5 1.6 4.5 3.6 4.6s3.7-1.9 3.8-4.4-1.6-4.5-3.6-4.6-3.7 1.9-3.8 4.4z"/><path class="st4" d="M293.2 202.6c8 .2 14.3 8.3 14.1 18-.2 9.7-6.8 17.4-14.8 17.1h-7.1l.7-35.1h7.1z"/><path class="st18" d="M271.8 219.7c.2-9.7 6.8-17.4 14.8-17.1s14.3 8.3 14.1 18c-.2 9.7-6.8 17.4-14.8 17.1s-14.3-8.3-14.1-18z"/><path class="st5" d="M278.3 219.9c-.1 5.4 3.4 9.8 7.8 10s8.1-4.1 8.2-9.5-3.4-9.8-7.8-10-8.1 4.2-8.2 9.5z"/><path class="st4" d="M409.2 202.6c8 .2 14.3 8.3 14.1 18-.2 9.7-6.8 17.4-14.8 17.1h-7.1l.7-35.1h7.1z"/><path class="st18" d="M387.8 219.7c.2-9.7 6.8-17.4 14.8-17.1s14.3 8.3 14.1 18c-.2 9.7-6.8 17.4-14.8 17.1s-14.3-8.3-14.1-18z"/><path class="st5" d="M394.3 219.9c-.1 5.4 3.4 9.8 7.8 10s8.1-4.1 8.2-9.5-3.4-9.8-7.8-10-8.1 4.2-8.2 9.5z"/><path class="st7" d="M426.6 144.3c-.3-1.8-1.9-3-3.7-3h-41.1l7.2 77.1h39.3c2.1 0 3.9-1.7 3.9-3.9v-40l-5.6-30.2z"/><path class="st7" d="M433.8 205H389v13.3h41.4c2.7 0 4.9-2.2 4.9-4.9v-6.9c0-.8-.7-1.5-1.5-1.5z"/><path class="st9" d="M385.9 144.9c-.3-1.8-1.9-3-3.7-3h-36.9c-3.2 0-5.9 2.6-5.9 5.9v49.1h12v1.5c.6.1 1.2.3 1.7.5.8-.6 1.7-.9 2.6-1 7.1-.6 14.1 2.2 18.8 7.6 5.5.7 7.3 7.5 7.3 13.4h5.7c2.1 0 3.9-1.7 3.9-3.9v-40l-5.5-30.1z"/><path class="st10" d="M346 146.3c-1.1 0-2 .9-2 2v47h7.5c.8 0 1.5.7 1.5 1.5v.3c.8-.5 1.8-.7 2.7-.8 7.4-.7 14.7 2.2 19.8 7.7 5.5 1.1 7.7 7.3 8 13.3h4.2c1.3 0 2.4-1.1 2.4-2.4v-39.8l-5.1-28.8h-39z"/><path class="st7" d="M406.7 186.1h17v18.8h-17zM391.7 209.4h5.4v4.5h-5.4zM430.9 209.4h3.6v4.5h-3.6z"/><path class="st11" d="M273.8 206h46.5v12.3h-46.5z"/><path class="st11" d="M273.8 195.2h46.5v10.9h-46.5z"/><path class="st7" d="M406.5 209.4h17v4.5h-17z"/><path class="st13" d="M428.2 174.3l-5.1-28.3c-.1-.5-.5-.8-1-.8h-30.5c-.6 0-1 .4-1 1v.2l5.1 28.3c.1.5.5.8 1 .8h30.6c.6 0 1-.4 1-1 0-.1 0-.1-.1-.2z"/><path class="st3" d="M220.4 130.7L207 187h-4.3M254.9 130.7L241.4 187h-3.2M296.3 131.3l-13.4 56.2h-5.6M330 125.3L315 187h-4.3"/><path class="st11" d="M254.9 195.2h-29.5v23.2h5.3c.8-11.2 8.6-19.9 18.1-19.7 9.1.3 16.5 8.9 17.2 19.7h7.9v-23.2h-19zM390.5 205H382c-3.6-4.9-8.7-9.1-14.2-9.9h-47.5v23.2h25.4c.8-11.2 8.6-19.9 18.1-19.7 9.1.3 16.5 8.9 17.2 19.7h6.1c2.7 0 4.9-2.2 4.9-4.9v-6.9c0-.8-.7-1.5-1.5-1.5z"/><path class="st13" d="M230.8 218.1h1.2v3.9h-1.2z"/><path class="st13" d="M233 217.1h-3.2v5.9h3.2v-5.9zM345.8 218.1h1.2v3.9h-1.2z"/><path class="st13" d="M349 217.1h-4.2v5.9h4.2v-5.9z"/><path class="st12" d="M382.5 218.8h49c2.2 0 4-1.8 4-4v-10.1c0-.5-.4-.9-.9-.9h-2.1V174l-5.1-29.1c-.3-1.8-1.9-3-3.7-3h-38.3v-16h-55v68-70h-5.1l.1 2H293v-2h-5.1v2h-31.5l.1-2h-5.3l-.1 2h-29.3l.6-2h-5.5l-.9 2h-28s-14.8 7.7-18.2 11.1-15.3 16.2-15.3 16.2v55.5h34.4l11.9-14.1-1 1h25.7v23.3h5M349.5 218.8h-82M339.5 168.7v50M216.8 124.7L200 195.3"/><path class="st3" d="M387 204.1v-25.7c-.1-3.5-.4-6.9-1-10.3l-3.3-17c-.7-2.9-3.2-5-6.2-5.1h-16.1c-2.9 0-5.2 2.3-5.2 5.2V195"/><path class="st13" d="M360.9 174.5c-.3 0-.6-.1-.9-.2v-23.9c.2 0 .3-.1.5-.1h13.8c4 0 4.9 4.4 4.9 4.6l3.6 19.5-.1.1h-21.8z"/><path class="st13" d="M374.3 151.3c3.1 0 3.8 3.4 3.9 3.8l3.4 18.4H361v-22.2h13.3m0-2h-13.8c-.3 0-1.5.2-1.5.5v24.9c0 .5 1.4.9 1.9.9h21.9c.6 0 1.1-.5 1.1-1.1v-.2l-3.6-19.5c-.3-1.1-1.5-5.5-6-5.5z"/><path class="st3" d="M1406 239.3h-12M1413.5 239.3h-1"/><path class="st19" d="M830.2 127.8h-59c-1.5.2-2.7 1.4-2.7 3l-6.8 37.4c.1 1.5 1.3 2.6 2.7 2.7h59c1.4.1 2.6-1 2.7-2.4l6.8-37.6c0-1.7-1.2-3-2.7-3.1z"/><path class="st19" d="M770.9 128.7l22.1 22.6c1.6 1 3.6 1 5.2 0l33-22.7"/><path fill="none" stroke="#cecccc" stroke-width="2.5" stroke-linecap="round" stroke-linejoin="round" d="M763.8 169l27-18.2"/><path class="st21" d="M800.8 150.3l24.1 20.1M748 155.3h15M755 145.3h-16M765 170.3h-14M754 132.3h-4M768 132.3h-10"/><path d="M1170 149.3v14h4c2.2 0 4 1.8 4 4v14" fill="none" stroke="#ffde02" stroke-width="2" stroke-linecap="round" stroke-linejoin="round"/><path d="M1178 178.3v-11c0-2.2-1.8-4-4-4h-43.1" fill="none" stroke="#ffde02" stroke-width="2" stroke-miterlimit="10"/><g opacity=".52"><circle class="st2" cx="943.8" cy="80.6" r="1.8"/><circle class="st2" cx="937" cy="73.4" r="2.6"/><circle class="st2" cx="930.7" cy="66.9" r="1.5"/><circle class="st2" cx="935.1" cy="71.6" r="1.8"/><circle class="st2" cx="941.9" cy="78.7" r="1.2"/><circle class="st2" cx="900.3" cy="83" r="1.6"/><circle class="st2" cx="896.6" cy="77.9" r="1.3"/><circle class="st2" cx="890.5" cy="72.4" r="2.7"/><circle class="st2" cx="892.3" cy="74.3" r="1.2"/></g><path class="st4" d="M475.5 183.8h151.2v37.4H475.5z"/><path class="st4" d="M607.2 202.6c8 .2 14.3 8.3 14.1 18-.2 9.7-6.8 17.4-14.8 17.1h-7.1l.7-35.1h7.1z"/><path class="st18" d="M585.8 219.7c.2-9.7 6.8-17.4 14.8-17.1s14.3 8.3 14.1 18c-.2 9.7-6.8 17.4-14.8 17.1s-14.3-8.3-14.1-18z"/><path class="st6" d="M592.3 219.9c-.1 5.4 3.4 9.8 7.8 10s8.1-4.1 8.2-9.5-3.4-9.8-7.8-10-8.1 4.2-8.2 9.5z"/><path class="st5" d="M596.6 220.1c0 2.5 1.6 4.5 3.6 4.6s3.7-1.9 3.8-4.4-1.6-4.5-3.6-4.6-3.7 1.9-3.8 4.4z"/><path class="st4" d="M501.2 202.6c8 .2 14.3 8.3 14.1 18-.2 9.7-6.8 17.4-14.8 17.1h-7.1l.7-35.1h7.1z"/><path class="st18" d="M479.8 219.7c.2-9.7 6.8-17.4 14.8-17.1s14.3 8.3 14.1 18c-.2 9.7-6.8 17.4-14.8 17.1s-14.3-8.3-14.1-18z"/><path class="st6" d="M486.3 219.9c-.1 5.4 3.4 9.8 7.8 10s8.1-4.1 8.2-9.5-3.4-9.8-7.8-10-8.1 4.2-8.2 9.5z"/><path class="st5" d="M490.6 220.1c0 2.5 1.6 4.5 3.6 4.6s3.7-1.9 3.8-4.4-1.6-4.5-3.6-4.6-3.7 1.9-3.8 4.4z"/><path class="st4" d="M542.2 202.6c8 .2 14.3 8.3 14.1 18-.2 9.7-6.8 17.4-14.8 17.1h-7.1l.7-35.1h7.1z"/><path class="st5" d="M520.8 219.7c.2-9.7 6.8-17.4 14.8-17.1s14.3 8.3 14.1 18c-.2 9.7-6.8 17.4-14.8 17.1s-14.3-8.3-14.1-18z"/><path class="st5" d="M527.3 219.9c-.1 5.4 3.4 9.8 7.8 10s8.1-4.1 8.2-9.5-3.4-9.8-7.8-10-8.1 4.2-8.2 9.5z"/><path class="st4" d="M649.2 202.6c8 .2 14.3 8.3 14.1 18-.2 9.7-6.8 17.4-14.8 17.1h-7.1l.7-35.1h7.1z"/><path class="st5" d="M627.8 219.7c.2-9.7 6.8-17.4 14.8-17.1s14.3 8.3 14.1 18c-.2 9.7-6.8 17.4-14.8 17.1s-14.3-8.3-14.1-18z"/><path class="st5" d="M634.3 219.9c-.1 5.4 3.4 9.8 7.8 10s8.1-4.1 8.2-9.5-3.4-9.8-7.8-10-8.1 4.2-8.2 9.5z"/><path class="st7" d="M664.7 202.3c-1.4-10.1-11.3-14.1-13.9-20.1-5.9-11.6-16.3-31.5-19.6-37-.5-.8-1.4-1.4-2.4-1.4h-46.6l39.5 58.6h42.9l.1-.1zM615.4 221.4h50.9c2.5 0 3.5-5.2 3.5-7.1v-9.2c0-1.5-1.2-2.7-2.7-2.7h-45.5l-.1 9.1-6.1 9.9z"/><path class="st7" d="M583 219.7c.2-11.6 8.2-20.8 17.7-20.5 7.2.2 13.2 5.7 15.7 13.3 3.7-4.8 7.2-10.2 7.2-10.2-1.4-10.1-11.3-14.1-13.9-20.1-5.9-11.6-16.3-31.5-19.6-37-.5-.8-1.4-1.4-2.4-1.4H463.8v72.3c0 2.5 2 4.5 4.5 4.5h8.7v-.9c.2-11.6 8.2-20.8 17.7-20.5 9.5.3 17.1 9.9 16.9 21.4H583v-.9z"/><path class="st10" d="M468.6 219.6h7.5c0-6.3 2.5-12.3 6.9-16.7 3.1-3.1 7.4-4.8 11.8-4.7 9.8.3 17.6 9.8 17.8 21.4H582c0-6.3 2.5-12.3 6.9-16.7 3.1-3.1 7.4-4.8 11.8-4.7 6.9.2 13 5 16 12.3 2.7-3.7 5.1-7.3 5.8-8.4-.9-5.6-4.8-9.3-8.2-12.6-2.3-2.2-4.5-4.4-5.6-6.9-5-9.8-13.1-26.3-17.5-34.3H468.6v71.3z"/><path class="st13" d="M477.8 219.1h1.2v4.9h-1.2z"/><path class="st13" d="M480 218.1h-3.2v6.9h3.2v-6.9zM583.8 219.1h1.2v4.9h-1.2z"/><path class="st13" d="M586 218.1h-3.2v6.9h3.2v-6.9z"/><path class="st4" d="M598.7 149.8l15.6 29.7h29.4l-15.9-29.7z"/><path class="st7" d="M616 189.7c2.6 2.6 5.3 5.4 6.8 9.3M663.9 199c-1.4-3.9-4.1-6.8-6.8-9.3"/><path class="st11" d="M609.7 202.4c1.4 1.1 2.7 2.5 3.7 4 2.9 4.1 4.4 9.2 4.2 14.2v.7h2.7c2.5 0 3.5-5.2 3.5-7.1v-11.9"/><path class="st12" d="M623.8 202.4v11.9c0 1.9-1 7.1-3.5 7.1h-5.5"/><path class="st11" d="M477.2 219.7c.2-6.4 2.8-12.5 7.2-17.2h-23.2v13.7c0 2.8 2.3 5.1 5.1 5.1h10.9v-1.6z"/><path class="st7" d="M571.5 179.8c-2.9-.1-5.3-2.3-5.6-5.2l-2.3-24.2c-.1-.6.4-1.1 1-1.2H584.3c.4 0 .8.2 1 .6l15.3 28.9c.3.5.1 1.2-.5 1.5-.2.1-.3.1-.5.1l-28.1-.5z"/><path class="st11" d="M599.8 195.5c1.7.1 3.4.4 5 .9v-12.2l-19.1-36.1c0-.1-.1-.1-.1-.1h-23.2c-.1 0-.1 0-.1.1v65h18.3c2.2-10.3 10.1-17.8 19.2-17.6z"/><path class="st13" d="M569.6 178.7c-.8-.1-1.5-.7-1.8-1.5v-24.5c0-.2.2-.4.4-.4h14.9l12.4 23.4c.1.1.1.3.1.5v2.1c0 .2-.2.4-.4.4h-25.6z"/><path class="st13" d="M582.5 153.3l12.1 22.8v1.6h-24.9c-.5-.1-.7-.3-.9-.6v-23.8h13.7m.6-2h-14.9c-.8 0-1.4.6-1.4 1.4v24.7c.3 1.3 1.4 2.2 2.7 2.3h25.7c.8 0 1.4-.6 1.4-1.4v-2.1c0-.3-.1-.6-.2-.9L584 151.9c-.2-.4-.5-.6-.9-.6z"/><path class="st7" d="M663 197.1h-7.6c.8 1.6 1.4 3.4 1.7 5.2l-.1.1h7.6l.1-.1c-.2-1.8-.8-3.6-1.7-5.2zM631.3 202.3l-.1.1h-7.6l.1-.1c-.3-1.8-.8-3.6-1.7-5.2h7.6s2.2 2.7 1.7 5.2zM628.5 209.6h33.8v4.4h-33.8z"/><path class="st12" d="M585.1 221.8h-74.6M662.7 221.8h3.3c2.5 0 3.5-5.2 3.5-7.1v-10.2c0-1.5-1.2-2.7-2.7-2.7h-2.2l.1-.5c-.1-.6-.2-.1-.3-.6 0-.2-.1-.4-.2-.6-.1-.3-.2-.6-.3-1-.1-.2-.2-.4-.2-.6-.1-.2-.2-.5-.3-.7 0-.1-.1-.2-.1-.3-.2-.3-.3-.7-.5-1-.1-.1-.1-.3-.2-.4l-.6-.9c-.1-.1-.2-.3-.3-.4-.2-.3-.4-.6-.6-.8-.1-.1-.2-.3-.3-.4-.2-.3-.4-.5-.6-.8l-.4-.4c-.2-.2-.4-.5-.6-.7l-.5-.5c-.2-.2-.4-.4-.5-.6l-1-1c-2.6-2.6-5.2-4.8-6.3-7.4-5.9-11.6-16.3-31.5-19.6-37-.5-.8-1.4-1.4-2.4-1.4H463.5v58h-2v13.9c0 2.8 2.3 5.1 5.1 5.1h10.2M555.5 220.8h29.6M512.5 220.8h67M619.2 222.3h42.6"/><path d="M623.6 202.3c-1.4-10.1-11.3-14.1-13.9-20.1-5.9-11.6-16.3-31.5-19.6-37-.5-.8-1.4-1.4-2.4-1.4" fill="#cecccc" stroke="#333" stroke-width="3" stroke-linecap="round" stroke-linejoin="round"/><path class="st15" d="M532.9 192.3h-34c-1.1 0-2-.8-2-1.9v-20.1h38v20c0 1.1-.8 2-1.9 2h-.1zM535 170l-17.3-12.3c-1-.7-2.3-.7-3.2 0L496.8 170"/><path class="st15" d="M499.4 171.3v-12h33v12"/><path class="st21" d="M497.4 171l18.1 10.1 18.9-10.1"/><path class="st15" d="M497.6 190.5l16.6-10.4c.9-.6 2-.6 2.9 0l17 10.5"/></g></svg>