<svg fill="none" height="30" viewBox="0 0 30 30" width="30" xmlns="http://www.w3.org/2000/svg"><path clip-rule="evenodd" d="m2 0h4.31582v1.5789h6.31578v-1.5789h4.7361v1.57863h6.3158v-1.57863h4.3165c1.1046 0 2 .895431 2 2v4.31577h-1.5791v6.31583h1.5791v4.7368h-1.5791v6.3158h1.5791v4.3158c0 1.1046-.8954 2-2 2h-4.3165v-1.5793h-6.3158v1.5793h-4.7361v-1.579h-6.31578v1.579h-4.31582c-1.10457 0-2-.8954-2-2v-4.3158h1.57911v-6.3158h-1.57911v-4.7369h1.57879v-6.31577h-1.57879v-4.31573c0-1.10457.895431-2 2-2zm17.4202 15.3701c.8526-.8594 1.279-1.9806 1.279-3.3636 0-1.1145-.1947-2.00748-.5841-2.67887-.3895-.6781-1.034-1.18164-1.9336-1.51062-.893-.32898-2.1015-.49347-3.6255-.49347h-5.64975v1.89331h1.89335v11.39005h-1.89335v1.8933h6.16335v-1.8933h-1.9739v-3.9276h1.994c2.0343-.0134 3.4778-.4498 4.3305-1.3092zm-1.8833-5.48857c.5573.43637.8359 1.12797.8359 2.07457 0 .7452-.1309 1.3294-.3928 1.7523-.2618.4163-.6713.7117-1.2286.8863-.5572.1678-1.3025.2517-2.2357.2517h-1.42v-5.62955h1.5811c1.3495 0 2.3029.22156 2.8601.66468z" fill="#fade4b" fill-rule="evenodd"/><path d="m20.6992 12.0065c0 1.383-.4264 2.5042-1.279 3.3636-.8527.8594-2.2962 1.2958-4.3305 1.3092h-1.994v3.9276h1.9739v1.8933h-6.16335v-1.8933h1.89335v-11.39005h-1.89335v-1.89331h5.64975c1.524 0 2.7325.16449 3.6255.49347.8996.32898 1.5441.83252 1.9336 1.51062.3894.67139.5841 1.56437.5841 2.67887zm-2.3264-.0504c0-.9466-.2786-1.6382-.8359-2.07458-.5572-.44311-1.5106-.66467-2.8601-.66467h-1.5811v5.62955h1.42c.9332 0 1.6785-.0839 2.2357-.2517.5573-.1746.9668-.47 1.2286-.8863.2619-.4229.3928-1.0071.3928-1.7523z" fill="#333"/></svg>