<?xml version="1.0" encoding="UTF-8"?>
<svg xmlns="http://www.w3.org/2000/svg" xmlns:xlink="http://www.w3.org/1999/xlink" viewBox="0 0 76 76" width="76px" height="76px">
<g id="surface135045098">
<path style=" stroke:none;fill-rule:nonzero;fill:rgb(100%,100%,100%);fill-opacity:1;" d="M 22.039062 30.398438 C 21.617188 30.398438 21.28125 30.738281 21.28125 31.160156 L 21.28125 44.839844 C 21.28125 45.261719 21.617188 45.601562 22.039062 45.601562 L 31.921875 45.601562 C 33.753906 45.601562 36.480469 44.382812 36.480469 41.039062 C 36.480469 39.097656 35.554688 37.894531 34.429688 37.210938 C 34.753906 36.597656 34.960938 35.863281 34.960938 34.960938 C 34.960938 31.617188 32.234375 30.398438 30.398438 30.398438 Z M 43.320312 30.398438 C 42.898438 30.398438 42.558594 30.738281 42.558594 31.160156 L 42.558594 44.839844 C 42.558594 45.261719 42.898438 45.601562 43.320312 45.601562 L 54.546875 45.601562 C 54.714844 45.601562 54.875 45.503906 54.953125 45.34375 L 56.222656 42.773438 C 56.277344 42.679688 56.203125 42.558594 56.089844 42.558594 L 45.601562 42.558594 L 45.601562 40.28125 C 45.601562 39.859375 45.9375 39.519531 46.359375 39.519531 L 51.488281 39.519531 C 51.664062 39.519531 51.816406 39.425781 51.894531 39.265625 L 53.183594 36.699219 C 53.234375 36.597656 53.160156 36.480469 53.050781 36.480469 L 45.601562 36.480469 L 45.601562 33.441406 L 54.507812 33.441406 C 54.671875 33.441406 54.828125 33.34375 54.910156 33.195312 L 56.222656 30.621094 C 56.277344 30.519531 56.203125 30.398438 56.089844 30.398438 Z M 61.554688 30.398438 C 61.132812 30.398438 60.800781 30.738281 60.800781 31.160156 L 60.800781 45.144531 C 60.800781 45.390625 61.007812 45.601562 61.257812 45.601562 L 63.839844 45.601562 L 63.839844 42.558594 C 63.839844 41.722656 64.523438 41.039062 65.359375 41.039062 L 69.894531 41.039062 L 72.480469 45.367188 C 72.5625 45.511719 72.710938 45.601562 72.871094 45.601562 L 75.851562 45.601562 C 75.964844 45.601562 76.035156 45.476562 75.976562 45.367188 L 73.121094 40.523438 C 74.914062 39.734375 76 38.03125 76 35.71875 C 76 32.488281 73.910156 30.398438 70.679688 30.398438 Z M 0.457031 30.511719 C 0.207031 30.511719 0 30.71875 0 30.96875 L 0 39.519531 C 0 41.816406 1.589844 46.171875 7.601562 46.171875 C 13.609375 46.171875 15.199219 41.816406 15.199219 39.519531 L 15.199219 30.511719 L 12.617188 30.511719 C 12.367188 30.511719 12.160156 30.71875 12.160156 30.96875 L 12.160156 39.503906 C 12.148438 40.109375 11.875 43.128906 7.601562 43.128906 C 3.324219 43.128906 3.050781 40.113281 3.039062 39.519531 L 3.039062 30.511719 Z M 24.320312 33.441406 L 30.382812 33.441406 C 31.082031 33.457031 31.921875 33.738281 31.921875 34.960938 C 31.921875 36.09375 31.203125 36.414062 30.554688 36.472656 C 30.472656 36.472656 30.4375 36.472656 30.382812 36.480469 L 24.320312 36.480469 Z M 63.839844 33.441406 L 70.679688 33.441406 C 72.722656 33.441406 72.960938 34.742188 72.960938 35.71875 C 72.960938 36.699219 72.722656 38 70.679688 38 L 63.839844 38 Z M 25.078125 39.519531 L 31.902344 39.519531 C 32.601562 39.539062 33.441406 39.816406 33.441406 41.039062 C 33.441406 42.261719 32.601562 42.542969 31.902344 42.558594 L 24.320312 42.558594 L 24.320312 40.28125 C 24.320312 39.859375 24.660156 39.519531 25.078125 39.519531 Z M 25.078125 39.519531 "/>
</g>
</svg>
