<?xml version="1.0" encoding="UTF-8"?>
<svg xmlns="http://www.w3.org/2000/svg" xmlns:xlink="http://www.w3.org/1999/xlink" viewBox="0 0 96 96" width="96px" height="96px">
<g id="surface134378758">
<path style=" stroke:none;fill-rule:nonzero;fill:rgb(100%,100%,100%);fill-opacity:1;" d="M 11.554688 36 C 12.785156 36 14.109375 36 15.339844 36 C 15.328125 43.535156 15.316406 51.070312 15.304688 58.605469 C 13.980469 58.734375 12.527344 58.921875 11.203125 59.074219 C 9.515625 54.351562 8.472656 51.421875 6.785156 46.453125 C 6.785156 51.503906 6.773438 54.597656 6.773438 59.648438 C 5.542969 59.8125 4.230469 59.976562 3 60.152344 C 3 52.101562 3 44.050781 3 36 C 4.382812 36 5.25 36 6.644531 36 C 8.273438 41.285156 9.902344 44.613281 11.53125 49.640625 C 11.542969 44.484375 11.542969 41.15625 11.554688 36 Z M 29.519531 39.726562 C 29.519531 38.648438 29.484375 37.089844 29.496094 36 C 25.980469 36 22.511719 36 18.996094 36 C 18.984375 43.429688 18.972656 50.859375 18.949219 58.289062 C 22.464844 57.960938 25.980469 57.703125 29.496094 57.503906 C 29.496094 56.414062 29.496094 54.855469 29.507812 53.765625 C 27.210938 53.90625 25.03125 54.058594 22.746094 54.210938 C 22.746094 52.207031 22.757812 50.566406 22.757812 48.5625 C 24.421875 48.539062 26.179688 48.5625 27.890625 48.527344 C 27.890625 47.4375 27.890625 45.867188 27.890625 44.777344 C 26.203125 44.8125 24.421875 44.8125 22.769531 44.847656 C 22.769531 42.84375 22.769531 41.753906 22.78125 39.761719 C 23.824219 39.738281 28.652344 39.738281 29.519531 39.726562 Z M 31.945312 39.726562 C 32.109375 39.726562 35.753906 39.75 35.882812 39.75 C 35.882812 45.738281 35.871094 51.199219 35.859375 57.1875 C 37.101562 57.152344 38.425781 57.105469 39.65625 57.070312 C 39.667969 51.117188 39.667969 45.679688 39.679688 39.726562 C 40.980469 39.726562 42.328125 39.714844 43.640625 39.714844 C 43.640625 38.660156 43.640625 37.078125 43.640625 36.023438 C 39.796875 36.023438 35.8125 36.023438 31.957031 36.023438 C 31.945312 37.089844 31.945312 38.648438 31.945312 39.726562 Z M 56.636719 36 C 53.121094 36 49.605469 36 46.101562 36 C 46.101562 42.984375 46.089844 49.980469 46.089844 56.976562 C 46.5 56.964844 46.910156 56.964844 47.332031 56.964844 C 48.175781 56.964844 49.019531 56.976562 49.851562 56.976562 C 49.851562 54.011719 49.851562 51.304688 49.851562 48.339844 C 50.050781 48.339844 54.480469 48.328125 54.984375 48.339844 C 54.984375 47.273438 54.972656 45.691406 54.972656 44.625 C 54.515625 44.625 50.039062 44.625 49.851562 44.625 C 49.851562 42.714844 49.851562 41.648438 49.839844 39.738281 C 50.261719 39.738281 55.617188 39.738281 56.636719 39.738281 C 56.636719 38.683594 56.636719 37.066406 56.636719 36 Z M 62.871094 53.589844 C 62.859375 47.542969 62.894531 42.058594 62.894531 36.011719 C 61.652344 36.011719 60.328125 36.011719 59.097656 36.011719 C 59.109375 43.078125 59.074219 50.132812 59.085938 57.1875 C 62.449219 57.316406 65.988281 57.457031 69.363281 57.691406 C 69.351562 56.601562 69.351562 55.042969 69.351562 53.953125 C 67.21875 53.824219 65.003906 53.683594 62.871094 53.589844 Z M 72.515625 57.914062 C 73.746094 58.019531 75.023438 58.113281 76.253906 58.21875 C 76.265625 50.824219 76.265625 43.417969 76.253906 36.023438 C 75.023438 36.023438 73.699219 36.023438 72.46875 36.023438 C 72.480469 43.3125 72.492188 50.613281 72.515625 57.914062 Z M 88.042969 47.390625 C 89.648438 43.605469 91.277344 39.984375 92.941406 36.023438 C 91.582031 36.023438 90.175781 36.023438 88.804688 36.023438 C 87.785156 38.472656 87.070312 40.042969 86.085938 42.375 C 85.171875 39.949219 84.5625 38.378906 83.648438 36.023438 C 82.277344 36.023438 80.871094 36.023438 79.511719 36.023438 C 81.023438 39.703125 82.40625 43.40625 83.941406 47.332031 C 82.347656 51.09375 80.71875 54.832031 79.125 58.453125 C 80.449219 58.582031 81.808594 58.769531 83.132812 58.921875 C 84.082031 56.589844 84.949219 54.796875 85.898438 52.40625 C 86.847656 54.949219 87.703125 56.917969 88.652344 59.542969 C 89.964844 59.71875 91.675781 59.964844 93 60.152344 C 91.40625 55.886719 89.660156 51.433594 88.042969 47.390625 Z M 88.042969 47.390625 "/>
</g>
</svg>
