<?xml version="1.0" encoding="UTF-8"?>
<svg xmlns="http://www.w3.org/2000/svg" xmlns:xlink="http://www.w3.org/1999/xlink" viewBox="0 0 14 14" width="14px" height="14px">
<g id="surface134351220">
<path style=" stroke:none;fill-rule:nonzero;fill:rgb(89.803922%,47.843137%,0%);fill-opacity:1;" d="M 7.875 1.75 C 7.875 1.425781 7.484375 1.167969 7 1.167969 C 6.515625 1.167969 6.125 1.425781 6.125 1.75 C 6.125 2.019531 6.417969 4.40625 6.417969 4.570312 C 6.417969 4.785156 6.675781 4.957031 7 4.957031 C 7.324219 4.957031 7.582031 4.785156 7.582031 4.570312 C 7.582031 4.40625 7.875 2.019531 7.875 1.75 Z M 6.125 12.25 C 6.125 12.574219 6.515625 12.832031 7 12.832031 C 7.484375 12.832031 7.875 12.574219 7.875 12.25 C 7.875 11.980469 7.582031 9.59375 7.582031 9.429688 C 7.582031 9.214844 7.324219 9.042969 7 9.042969 C 6.675781 9.042969 6.417969 9.214844 6.417969 9.429688 C 6.417969 9.59375 6.125 11.980469 6.125 12.25 Z M 2.855469 3.554688 C 2.578125 3.394531 2.15625 3.601562 1.914062 4.019531 C 1.671875 4.4375 1.703125 4.910156 1.980469 5.070312 C 2.214844 5.207031 4.429688 6.144531 4.570312 6.226562 C 4.753906 6.335938 5.035156 6.195312 5.195312 5.917969 C 5.359375 5.636719 5.335938 5.324219 5.152344 5.214844 C 5.011719 5.136719 3.089844 3.691406 2.855469 3.554688 Z M 11.144531 10.445312 C 11.421875 10.605469 11.84375 10.398438 12.085938 9.980469 C 12.328125 9.5625 12.296875 9.089844 12.019531 8.929688 C 11.785156 8.792969 9.570312 7.855469 9.429688 7.773438 C 9.246094 7.664062 8.964844 7.804688 8.804688 8.082031 C 8.640625 8.363281 8.664062 8.675781 8.847656 8.785156 C 8.988281 8.863281 10.910156 10.308594 11.144531 10.445312 Z M 11.144531 3.554688 C 11.421875 3.394531 11.84375 3.601562 12.085938 4.019531 C 12.328125 4.4375 12.296875 4.910156 12.019531 5.070312 C 11.785156 5.207031 9.570312 6.144531 9.429688 6.226562 C 9.246094 6.335938 8.964844 6.195312 8.804688 5.917969 C 8.640625 5.636719 8.664062 5.324219 8.847656 5.214844 C 8.988281 5.136719 10.910156 3.691406 11.144531 3.554688 Z M 2.855469 10.445312 C 2.578125 10.605469 2.15625 10.398438 1.914062 9.980469 C 1.671875 9.5625 1.703125 9.089844 1.980469 8.929688 C 2.214844 8.792969 4.429688 7.855469 4.570312 7.773438 C 4.753906 7.664062 5.035156 7.804688 5.195312 8.082031 C 5.359375 8.363281 5.335938 8.675781 5.152344 8.785156 C 5.011719 8.863281 3.089844 10.308594 2.855469 10.445312 Z M 2.855469 10.445312 "/>
</g>
</svg>
